#!OML:ASF F:\VICON\USERDATA\INSTALL\rory3\rory3.ASF
:FULLY-SPECIFIED
:DEGREES
238
root 0.6925 17.9423 -0.62024 1.20018 -30.7296 2.97234
lowerback 2.8222 -1.87116 -5.26463
upperback -0.0247251 -2.63292 2.70836
thorax -1.24352 -1.28088 5.86171
lowerneck -27.0425 -0.0630817 -10.6452
upperneck -6.57535 2.5304 7.49267
head 1.82453 1.693 4.29933
rclavicle -1.32738e-013 2.94201e-014
rhumerus -34.1914 -7.16403 -70.4154
rradius 38.7362
rwrist 13.8335
rhand -26.6936 12.0562
rfingers 7.12502
rthumb -0.124134 -17.9235
lclavicle -1.32738e-013 2.94201e-014
lhumerus 59.0156 11.078 46.4979
lradius 97.749
lwrist -1.96049
lhand -38.507 22.6551
lfingers 7.12502
lthumb -11.5283 52.3181
rfemur -10.9802 2.78505 9.25935
rtibia 25.336
rfoot -15.8953 -9.2259
rtoes 2.04521
lfemur -0.948852 1.45769 -24.8771
ltibia 12.9284
lfoot -9.70877 6.67913
ltoes -11.7327
239
root 0.6913 17.9431 -0.615775 1.24907 -30.7629 2.94272
lowerback 2.83761 -1.86126 -5.23411
upperback -0.063288 -2.61921 2.75383
thorax -1.29321 -1.27153 5.89343
lowerneck -27.1041 -0.0888053 -10.6379
upperneck -6.84631 2.50109 7.46309
head 1.75053 1.67818 4.28577
rclavicle -4.24405e-014 -1.27222e-014
rhumerus -34.1787 -7.18441 -70.3441
rradius 38.6409
rwrist 13.9051
rhand -26.6774 12.2344
rfingers 7.12502
rthumb -0.108475 -17.7453
lclavicle -4.24405e-014 -1.27222e-014
lhumerus 59.2519 11.3223 46.4334
lradius 97.7179
lwrist -1.9245
lhand -39.0018 23.0612
lfingers 7.12502
lthumb -12.0054 52.6969
rfemur -11.0125 2.75236 9.28616
rtibia 25.3181
rfoot -15.8464 -9.20522
rtoes 1.94554
lfemur -0.987802 1.46676 -24.8615
ltibia 12.9594
lfoot -9.74315 6.73649
ltoes -11.7895
240
root 0.688973 17.944 -0.612743 1.33575 -30.9095 2.90098
lowerback 2.79883 -1.81732 -5.20277
upperback -0.11113 -2.5576 2.79707
thorax -1.32896 -1.23839 5.91902
lowerneck -26.9391 -0.110338 -10.6857
upperneck -7.35736 2.475 7.46007
head 1.57325 1.66574 4.28537
rclavicle -2.09718e-014 4.77083e-015
rhumerus -34.2182 -7.09186 -70.3
rradius 38.619
rwrist 13.9231
rhand -26.6218 12.3509
rfingers 7.12502
rthumb -0.054822 -17.6288
lclavicle -2.09718e-014 4.77083e-015
lhumerus 59.5455 11.5847 46.4631
lradius 97.4678
lwrist -2.08703
lhand -39.5109 22.8313
lfingers 7.12502
lthumb -12.4963 52.4376
rfemur -11.1113 2.91468 9.31707
rtibia 25.3046
rfoot -15.8327 -9.21426
rtoes 2.00477
lfemur -1.06211 1.54948 -24.8319
ltibia 12.9849
lfoot -9.80099 6.8015
ltoes -12.0048
241
root 0.686912 17.9444 -0.609392 1.44152 -31.1258 2.92548
lowerback 2.67858 -1.75651 -5.22063
upperback -0.108008 -2.47176 2.7713
thorax -1.27066 -1.19726 5.89487
lowerneck -27.1442 -0.0852889 -10.4416
upperneck -7.62352 2.45516 7.34603
head 1.52111 1.64786 4.20983
rclavicle 8.10048e-015 -9.54166e-015
rhumerus -34.2329 -6.97084 -70.4329
rradius 38.7486
rwrist 13.7904
rhand -26.6255 12.3615
rfingers 7.12502
rthumb -0.0583914 -17.6183
lclavicle 8.10048e-015 -9.54166e-015
lhumerus 59.8878 11.8459 46.438
lradius 97.3523
lwrist -2.13171
lhand -39.2354 21.9189
lfingers 7.12502
lthumb -12.2306 51.5413
rfemur -11.291 3.12649 9.27494
rtibia 25.3258
rfoot -15.8605 -9.21027
rtoes 2.29544
lfemur -1.16402 1.6426 -24.8724
ltibia 12.9695
lfoot -9.81079 6.86658
ltoes -12.0709
242
root 0.685046 17.9446 -0.604485 1.49165 -31.2586 2.92382
lowerback 2.60481 -1.69683 -5.17661
upperback 0.000970544 -2.38747 2.68032
thorax -1.13401 -1.16262 5.76647
lowerneck -27.8021 -0.0709249 -10.1016
upperneck -7.56251 2.42471 7.34952
head 1.62818 1.63222 4.16482
rclavicle -7.54885e-014 -2.38542e-015
rhumerus -34.0752 -7.15089 -70.6371
rradius 38.7898
rwrist 13.7526
rhand -26.5609 12.3656
rfingers 7.12502
rthumb 0.00404983 -17.6141
lclavicle -7.54885e-014 -2.38542e-015
lhumerus 60.4525 12.1707 46.425
lradius 97.3261
lwrist -2.23672
lhand -39.1474 21.5401
lfingers 7.12502
lthumb -12.1458 51.1675
rfemur -11.375 3.20801 9.26782
rtibia 25.3474
rfoot -15.8433 -9.22526
rtoes 2.0331
lfemur -1.18599 1.68216 -24.8834
ltibia 12.9623
lfoot -9.83979 6.93016
ltoes -11.9743
